<mxfile host="65bd71144e">
    <diagram id="i8Fxyg8KbR1eDPJhbFrh" name="Page-1">
        <mxGraphModel dx="1342" dy="972" grid="1" gridSize="10" guides="1" tooltips="1" connect="1" arrows="1" fold="1" page="1" pageScale="1" pageWidth="1169" pageHeight="827" math="0" shadow="0">
            <root>
                <mxCell id="0"/>
                <mxCell id="1" parent="0"/>
                <mxCell id="12" value="ShinyProxy" style="whiteSpace=wrap;html=1;verticalAlign=top;fillColor=#fff2cc;strokeColor=#d6b656;" vertex="1" parent="1">
                    <mxGeometry x="360" y="240" width="360" height="120" as="geometry"/>
                </mxCell>
                <mxCell id="13" value="App" style="whiteSpace=wrap;html=1;" vertex="1" parent="1">
                    <mxGeometry x="560" y="280" width="120" height="40" as="geometry"/>
                </mxCell>
                <mxCell id="14" value="Proxy" style="whiteSpace=wrap;html=1;" vertex="1" parent="1">
                    <mxGeometry x="400" y="280" width="120" height="40" as="geometry"/>
                </mxCell>
                <mxCell id="16" value="Authentication" style="whiteSpace=wrap;html=1;verticalAlign=top;fillColor=#f8cecc;strokeColor=#b85450;" vertex="1" parent="1">
                    <mxGeometry x="120" y="240" width="200" height="280" as="geometry"/>
                </mxCell>
                <mxCell id="19" value="Services" style="whiteSpace=wrap;html=1;verticalAlign=top;fillColor=#e1d5e7;strokeColor=#9673a6;" vertex="1" parent="1">
                    <mxGeometry x="760" y="240" width="360" height="280" as="geometry"/>
                </mxCell>
                <mxCell id="29" value="Monitoring" style="whiteSpace=wrap;html=1;verticalAlign=top;fillColor=#dae8fc;strokeColor=#6c8ebf;" vertex="1" parent="1">
                    <mxGeometry x="360" y="400" width="360" height="120" as="geometry"/>
                </mxCell>
                <mxCell id="30" value="Database" style="whiteSpace=wrap;html=1;" vertex="1" parent="1">
                    <mxGeometry x="560" y="440" width="120" height="40" as="geometry"/>
                </mxCell>
                <mxCell id="31" value="Grafana" style="whiteSpace=wrap;html=1;" vertex="1" parent="1">
                    <mxGeometry x="400" y="440" width="120" height="40" as="geometry"/>
                </mxCell>
                <mxCell id="33" value="LDAP Server" style="whiteSpace=wrap;html=1;" vertex="1" parent="1">
                    <mxGeometry x="160" y="280" width="120" height="40" as="geometry"/>
                </mxCell>
                <mxCell id="34" value="LDAP Admin" style="whiteSpace=wrap;html=1;" vertex="1" parent="1">
                    <mxGeometry x="160" y="440" width="120" height="40" as="geometry"/>
                </mxCell>
                <mxCell id="35" value="FastAPI" style="whiteSpace=wrap;html=1;" vertex="1" parent="1">
                    <mxGeometry x="800" y="280" width="120" height="40" as="geometry"/>
                </mxCell>
                <mxCell id="36" value="Plumber" style="whiteSpace=wrap;html=1;" vertex="1" parent="1">
                    <mxGeometry x="800" y="360" width="120" height="40" as="geometry"/>
                </mxCell>
                <mxCell id="37" value="Express" style="whiteSpace=wrap;html=1;" vertex="1" parent="1">
                    <mxGeometry x="800" y="440" width="120" height="40" as="geometry"/>
                </mxCell>
                <mxCell id="38" value="Oxygen" style="whiteSpace=wrap;html=1;" vertex="1" parent="1">
                    <mxGeometry x="960" y="280" width="120" height="40" as="geometry"/>
                </mxCell>
                <mxCell id="39" value="Gin" style="whiteSpace=wrap;html=1;" vertex="1" parent="1">
                    <mxGeometry x="960" y="360" width="120" height="40" as="geometry"/>
                </mxCell>
                <mxCell id="40" value="Spring" style="whiteSpace=wrap;html=1;" vertex="1" parent="1">
                    <mxGeometry x="960" y="440" width="120" height="40" as="geometry"/>
                </mxCell>
                <mxCell id="41" value="Persistent Storage" style="whiteSpace=wrap;html=1;fillColor=#f5f5f5;fontColor=#333333;strokeColor=#666666;align=center;verticalAlign=top;" vertex="1" parent="1">
                    <mxGeometry x="120" y="560" width="680" height="120" as="geometry"/>
                </mxCell>
                <mxCell id="42" value="LDAP&lt;div&gt;Data&lt;/div&gt;" style="whiteSpace=wrap;html=1;" vertex="1" parent="1">
                    <mxGeometry x="160" y="600" width="120" height="40" as="geometry"/>
                </mxCell>
                <mxCell id="43" value="ShinyProxy&lt;div&gt;Logs&lt;/div&gt;" style="whiteSpace=wrap;html=1;" vertex="1" parent="1">
                    <mxGeometry x="320" y="600" width="120" height="40" as="geometry"/>
                </mxCell>
                <mxCell id="44" value="ShinyProxy&lt;div&gt;Container Logs&lt;/div&gt;" style="whiteSpace=wrap;html=1;" vertex="1" parent="1">
                    <mxGeometry x="480" y="600" width="120" height="40" as="geometry"/>
                </mxCell>
                <mxCell id="45" value="Postgres&lt;div&gt;Data&lt;/div&gt;" style="whiteSpace=wrap;html=1;" vertex="1" parent="1">
                    <mxGeometry x="640" y="600" width="120" height="40" as="geometry"/>
                </mxCell>
                <mxCell id="46" value="Cache" style="whiteSpace=wrap;html=1;fillColor=#ffe6cc;strokeColor=#d79b00;verticalAlign=top;" vertex="1" parent="1">
                    <mxGeometry x="840" y="560" width="200" height="120" as="geometry"/>
                </mxCell>
                <mxCell id="47" value="Redis" style="whiteSpace=wrap;html=1;" vertex="1" parent="1">
                    <mxGeometry x="880" y="600" width="120" height="40" as="geometry"/>
                </mxCell>
            </root>
        </mxGraphModel>
    </diagram>
</mxfile>